<svg width="59" height="59" viewBox="0 0 59 59" fill="none" xmlns="http://www.w3.org/2000/svg">
    <path
        d="M50.5187 8.1888C48.7444 6.41451 46.6096 5.52817 44.1143 5.52979H13.9023C11.4053 5.52979 9.27055 6.41612 7.49788 8.1888C5.72359 9.96309 4.83726 12.0979 4.83887 14.5932V44.8052C4.83887 47.3022 5.72521 49.4369 7.49788 51.2096C9.27217 52.9839 11.407 53.8702 13.9023 53.8686H20.9526C21.4123 53.8686 21.7583 53.8525 21.9906 53.8202C22.2611 53.7668 22.5052 53.6225 22.6826 53.4113C22.9132 53.1694 23.0285 52.8186 23.0285 52.3589L23.0116 50.2176C23.0019 48.853 22.9971 47.7723 22.9971 46.9755L22.2712 47.1013C21.8115 47.1852 21.2301 47.2223 20.5268 47.2126C19.793 47.1986 19.0615 47.125 18.3396 46.9925C17.5704 46.853 16.8465 46.5292 16.2298 46.0489C15.5825 45.5593 15.0997 44.8841 14.8458 44.1133L14.5313 43.3874C14.2652 42.8154 13.9322 42.277 13.5393 41.7833C13.0877 41.1962 12.6312 40.7978 12.1699 40.5881L11.9521 40.4308C11.8009 40.3213 11.6629 40.1946 11.5408 40.0534C11.4242 39.9222 11.3287 39.7736 11.2578 39.613C11.1948 39.4646 11.2473 39.3437 11.415 39.2501C11.5828 39.1533 11.8876 39.1058 12.3296 39.1074L12.9587 39.2041C13.378 39.2864 13.8966 39.5372 14.5144 39.9566C15.1388 40.3823 15.6603 40.9419 16.0411 41.5946C16.525 42.4527 17.1073 43.1084 17.7879 43.5616C18.4702 44.0133 19.1574 44.2391 19.8493 44.2391C20.5413 44.2391 21.1397 44.1867 21.6446 44.0818C22.1335 43.9805 22.6087 43.8213 23.06 43.6076C23.2487 42.2027 23.7624 41.122 24.6012 40.3655C23.5135 40.258 22.4354 40.0687 21.376 39.7993C20.3423 39.5157 19.3482 39.1036 18.417 38.5727C17.4425 38.0421 16.5818 37.3253 15.8838 36.4629C15.2128 35.6241 14.662 34.5233 14.2313 33.1603C13.8022 31.7957 13.5877 30.2214 13.5877 28.4374C13.5877 25.9002 14.416 23.7388 16.0725 21.9532C15.2983 20.0451 15.3717 17.9062 16.2927 15.5368C16.9024 15.3464 17.8049 15.4876 19.0001 15.9602C20.1953 16.4328 21.0712 16.836 21.6277 17.1699C22.1841 17.5086 22.6301 17.7925 22.9656 18.0216C24.9324 17.4732 26.9653 17.198 29.0071 17.2038C31.0846 17.2038 33.0992 17.4764 35.0509 18.0216L36.2462 17.2667C37.1656 16.7147 38.1353 16.2513 39.1423 15.8828C40.2536 15.4634 41.1037 15.348 41.6924 15.5368C42.636 17.9079 42.7191 20.0475 41.9416 21.9557C43.5998 23.738 44.4289 25.8994 44.4289 28.4399C44.4289 30.2238 44.2135 31.8021 43.7829 33.1748C43.3538 34.5491 42.7981 35.6507 42.1158 36.4798C41.4035 37.3291 40.5396 38.0388 39.5681 38.5727C38.5519 39.1388 37.5656 39.5477 36.6091 39.7993C35.5498 40.0695 34.4717 40.2596 33.3839 40.3679C34.4727 41.3115 35.0179 42.8003 35.0195 44.8343V52.3589C35.0195 52.7137 35.0719 53.0016 35.1768 53.2226C35.2257 53.3287 35.2955 53.4238 35.3819 53.5024C35.4684 53.581 35.5697 53.6413 35.68 53.6799C35.9107 53.7638 36.1155 53.8154 36.2946 53.8348C36.4736 53.8573 36.7301 53.8678 37.064 53.8662H44.1143C46.6112 53.8662 48.746 52.9799 50.5187 51.2072C52.2914 49.4345 53.1777 47.2997 53.1777 44.8028V14.5932C53.1777 12.0963 52.293 9.96147 50.5187 8.1888Z"
        fill="#05FF4D"
    />
</svg>
    