<?xml version="1.0" encoding="UTF-8" standalone="no"?>
<svg
   width="49"
   height="49"
   viewBox="0 0 49 49"
   fill="none"
   version="1.1"
   id="svg8"
   sodipodi:docname="Gmail.svg"
   inkscape:version="1.1.2 (0a00cf5339, 2022-02-04)"
   xmlns:inkscape="http://www.inkscape.org/namespaces/inkscape"
   xmlns:sodipodi="http://sodipodi.sourceforge.net/DTD/sodipodi-0.dtd"
   xmlns="http://www.w3.org/2000/svg"
   xmlns:svg="http://www.w3.org/2000/svg">
   <defs
      id="defs12">
      <clipPath
         clipPathUnits="userSpaceOnUse"
         id="clipPath5776">
         <path
            id="path5778"
            style="fill:#ff0000;fill-opacity:1;fill-rule:nonzero;stroke:none"
            d="m 8.2910156,12.929688 c 0.00146,0.01239 8.26e-4,0.02631 0.00195,0.03906 6.906e-4,-0.0019 0.00126,-0.0039 0.00195,-0.0059 -4.886e-4,-0.0072 5.883e-4,-0.01002 0,-0.01953 -0.00117,-0.0046 -0.0027,-0.0091 -0.00391,-0.01367 z M 14.25,14.34375 c -0.52349,-2.15e-4 -1.04689,0.0014 -1.570312,0.002 0.05215,0.01119 0.104474,0.02024 0.15625,0.0332 0.315029,0.07888 0.627654,0.168956 0.939453,0.259766 0.206537,0.06015 0.40573,0.142576 0.615234,0.191406 0.570007,0.132849 0.680021,0.09269 1.208984,0.169922 0.289918,0.04233 0.578178,0.09639 0.867188,0.144531 0.450425,0.10167 0.914508,0.16447 1.357422,0.298828 0.3664,0.111147 0.711672,0.249838 1.060547,0.404297 1.184804,0.574189 0.892443,1.065281 0.353515,2.089844 0.0802,0.04512 0.159296,0.09055 0.236328,0.140625 0.128964,0.08383 0.360899,0.240551 0.496094,0.332031 0.128703,0.06659 0.234556,0.169378 0.359375,0.242188 0.0095,0.0055 0.02275,0.01506 0.03125,0.0078 0.0029,-0.0024 -0.0037,-0.0065 -0.0098,-0.0098 0.374052,0.196784 0.267605,0.137765 0.5625,0.320312 0.290442,0.178314 0.581649,0.355392 0.890626,0.5 0.04669,0.02457 0.08958,0.05511 0.134765,0.08203 0.0019,7.2e-4 0.0039,0.0012 0.0059,0.002 0.237786,0.08884 0.473841,0.182662 0.705079,0.287109 0.09384,0.04238 0.185333,0.08854 0.277343,0.134765 0.219669,0.11038 0.08638,0.06362 0.238282,0.109376 0.03095,0.0105 0.06064,0.02135 0.0918,0.03125 0.02274,0.0072 0.04552,0.0146 0.06836,0.02148 0.03726,-0.01661 0.105475,0.03834 0.15625,0.04492 0.0288,0.0037 -0.05611,-0.01528 -0.08398,-0.02344 -0.02409,-0.007 -0.04823,-0.01424 -0.07227,-0.02148 -0.0061,0.0027 -0.01359,0.0024 -0.01758,0.0098 -0.0029,0.0054 -0.0049,0.01024 -0.0078,0.01562 0.154507,0.06952 0.305689,0.145921 0.457031,0.222657 0.01121,-0.149607 0.03593,-0.125266 0.25586,0.08984 0.01727,0.02023 0.0771,0.0712 0.05273,0.06055 -0.104619,-0.0457 -0.206672,-0.09871 -0.308594,-0.15039 -0.004,0.05344 -0.0091,0.133262 -0.01758,0.232422 0.0097,0.0067 0.01969,0.01277 0.0293,0.01953 0.04749,0.03343 0.08697,0.07746 0.136719,0.107422 0.0062,0.0038 8.33e-4,-0.02006 0.0078,-0.01953 0.02473,0.0018 0.04708,0.01669 0.07031,0.02539 0.01776,0.0075 0.03503,0.01586 0.05273,0.02344 0.100776,-0.192499 0.220006,-0.376093 0.347657,-0.550782 0.05622,-0.07694 0.164919,-0.100436 0.255859,-0.128906 0.196592,-0.06155 0.292508,-0.07345 0.400391,-0.06641 h 0.002 c 0.198061,-0.045 0.207831,-0.04593 0.380859,-0.07813 0.280986,-0.09017 0.572477,-0.14156 0.863281,-0.1875 0.253105,-0.03201 0.506809,-0.07074 0.742188,-0.173828 0.164602,-0.135827 0.381799,-0.182383 0.576172,-0.257813 0.132511,-0.05142 0.260551,-0.114565 0.390625,-0.171875 0.04627,-0.02007 0.0924,-0.04048 0.138672,-0.06055 0.07114,-0.04859 0.131522,-0.08839 0.154296,-0.103515 0.126593,-0.04521 0.254269,-0.08956 0.38086,-0.134766 0.002,-4.21e-4 0.0038,-0.0015 0.0059,-0.002 0.239409,-0.189846 0.514804,-0.316874 0.791016,-0.443359 0.08448,-0.05191 0.185427,-0.06773 0.273437,-0.111328 0.0058,-0.0029 0.0068,-0.0114 0.01172,-0.01563 0.01215,-0.01044 0.02564,-0.01854 0.03906,-0.02734 0.150848,-0.09726 0.08183,-0.05219 0.205078,-0.132813 0.23066,-0.143856 0.466324,-0.27975 0.699218,-0.419922 0.147706,-0.09197 0.300058,-0.176426 0.455079,-0.255859 0.02565,-0.06912 0.05488,-0.140711 0.07227,-0.199219 0.08881,-0.298807 0.330977,-0.501565 0.580078,-0.660156 0.02227,-0.01249 0.121307,-0.06758 0.179688,-0.09961 0.101753,-0.07974 0.0241,-0.02978 0.34375,-0.230469 0.07593,-0.03656 0.157529,-0.0694 0.230469,-0.111328 0.04084,-0.02347 0.07968,-0.04983 0.121093,-0.07227 0.05569,-0.03018 0.113212,-0.05578 0.169922,-0.08398 -0.0056,0.0042 -0.02168,0.0062 -0.01758,0.01172 0.03635,0.04863 0.0063,-0.08003 0.09375,-0.05273 0.01991,0.0062 -0.03249,0.05739 -0.03125,0.05664 h 0.002 c 0.470403,-0.41344 -0.241148,0.113065 0.453125,-0.378907 0.132422,-0.06365 0.168629,-0.08254 0.179688,-0.08398 0.01616,-0.01503 0.03319,-0.02944 0.04883,-0.04492 0.0012,-0.0012 3.22e-4,0.0027 -0.002,0.0039 -0.01181,0.01321 -0.03958,0.03832 -0.03711,0.03711 v 0.002 c 0.312758,-0.275872 -0.250564,0.189502 0.271485,-0.232422 0.01075,-0.0071 0.03965,-0.03118 0.03125,-0.02148 -0.0195,0.02256 -0.08821,0.07857 -0.06445,0.06055 0.2539,-0.192524 -0.01625,-0.0115 0.208984,-0.166016 0.147303,-0.145946 0.296943,-0.289339 0.482422,-0.457031 0.02186,-0.01977 0.04592,-0.0392 0.06836,-0.05859 0.0029,-0.01406 0.0101,-0.02375 0.01367,-0.03711 L 33.990234,14.34375 h -0.701172 -2.314453 -3.197265 -3.1875 c -1.095482,-10e-7 -2.191628,-2e-5 -3.28711,0 -1.062209,1.1e-5 -2.123339,1.3e-5 -3.185546,0 -1.288919,1.09e-4 -2.57827,0.0011 -3.867188,0 z m -5.8730469,0.447266 -0.2050781,0.05469 c 0.00767,0.03531 0.016368,0.06882 0.027344,0.09766 0.030851,0.08107 0.098982,0.317232 0.1171874,0.232422 0.027276,-0.127064 0.045989,-0.255726 0.060547,-0.384765 z m -0.2792969,0.07422 -0.027344,0.0078 c 0.025366,0.106755 0.058395,0.24295 0.082031,0.341797 l 0.017578,0.0098 c -0.024987,-0.119971 -0.049965,-0.241115 -0.072266,-0.359375 z m 0.072266,0.359375 c 0.0147,0.07058 0.015775,0.07186 0.027344,0.126953 0.063191,-0.0017 0.1262276,-0.0019 0.1894532,-0.0039 z m -0.017578,-0.0098 -0.265625,-0.150391 c -0.00445,0.01629 -0.00927,0.03252 -0.013672,0.04883 l 0.085937,0.244141 c 0.075553,-10e-4 0.1509242,-0.0039 0.2265625,-0.0059 -0.015227,-0.06314 -0.00798,-0.03122 -0.033203,-0.136718 z m -0.1933594,0.142578 c -0.051916,7e-4 -0.104368,0.0019 -0.15625,0.002 -0.00111,0.01162 -0.00291,0.02163 -0.00391,0.03711 0.056165,-0.0065 0.1117007,-0.01041 0.1679688,-0.01563 z m -0.15625,0.002 c 0.00411,-0.04295 0.012169,-0.06807 0.023437,-0.107422 V 15.25 c -0.00528,-0.02321 -0.00115,-0.085 -0.00781,-0.06445 -0.014744,0.04521 -0.010635,0.09333 -0.015625,0.140625 -0.00117,0.01107 -0.00276,0.02212 -0.00391,0.0332 z m 0.011719,-0.419922 -0.03125,0.0098 c -0.012199,0.03608 -0.028287,0.07088 -0.039063,0.107422 -0.020091,0.06813 0.02282,-0.01243 0.070312,-0.117188 z m -0.2753906,0.07422 -0.033203,0.0078 c -0.1266836,0.127167 -0.1965575,0.187932 0.029297,0.002 0.0012,-0.0033 0.00266,-0.0065 0.00391,-0.0098 z m 0.2578125,0.375 c -2.714e-4,0.0026 -0.00168,0.0052 -0.00195,0.0078 h 0.00195 c -4.11e-5,-0.0018 1.281e-4,-0.0058 0,-0.0078 z m -0.013672,0.128906 c -0.012231,0.123087 -0.024098,0.246233 -0.037109,0.369141 -0.05008,0.205992 -0.097098,0.413955 -0.1503907,0.61914 -0.00373,0.01436 -0.015774,0.02537 -0.021484,0.03906 -0.019686,0.04719 -0.038399,0.09411 -0.054688,0.142578 -0.059561,0.177256 -0.1127343,0.358293 -0.1152343,0.546875 -0.00599,0.06204 -0.044761,0.461632 -0.056641,0.544922 -0.066006,0.462785 -0.184459,0.915486 -0.2949218,1.369141 -0.1277325,0.555167 -0.08462,0.353417 -0.1816406,0.8125 -0.021796,0.103138 -0.05296,0.203805 -0.064453,0.308593 -0.010311,0.09401 -1e-7,0.190569 0,0.285157 v 0.599609 c -7e-7,1.267837 -1.39e-5,2.536851 0,3.804687 1.19e-5,0.814541 1.087e-4,1.62882 0,2.44336 2.69e-5,0.670099 7.966e-4,1.339666 0,2.009765 -8.7e-4,0.59828 -0.00175,1.196657 0.00391,1.794922 -0.00194,0.488271 -0.024851,0.977064 -0.00391,1.464844 0.1354282,-0.06139 0.232999,-0.06715 0.4511719,-0.08008 0.1073268,-0.0029 0.1491841,8.13e-4 0.1972656,0.0039 0.023487,-0.0077 0.04689,-0.01556 0.070312,-0.02344 0.1136189,-0.05696 0.2286904,-0.112603 0.3378906,-0.175782 0.069668,-0.0034 0.1428791,-0.0068 0.2148438,-0.0078 0.00238,-0.183093 0.00973,-0.365644 0.00195,-0.548828 -0.014877,-0.297401 -0.028874,-0.594704 -0.021484,-0.892578 0.022363,-0.900852 0.014118,-0.286442 0.060547,-1.142578 0.015102,-0.278488 0.024957,-0.557305 0.037109,-0.835938 4.158e-4,-0.564293 0.00136,-1.129076 0.00195,-1.693359 0.00548,-0.16983 0.0023,-0.339739 0,-0.509766 2.9e-6,-0.03193 -2.7e-6,-0.06377 0,-0.0957 -0.00191,-0.134851 -0.00148,-0.26953 0,-0.404297 1.7e-6,-0.01303 -1.8e-6,-0.02603 0,-0.03906 1.6e-6,-0.01169 -0.011689,-0.03523 0,-0.03516 h 0.00195 c 8.678e-4,-0.0423 2.87e-4,-0.08467 0.00195,-0.126953 0.010419,5.81e-4 0.020829,0.0014 0.03125,0.002 -0.00364,-0.09469 -0.00453,-0.192226 -0.00391,-0.375 -9.4e-4,-0.481519 -0.00356,-0.963827 0.00391,-1.445312 0.00389,-0.994267 -0.038969,-1.988268 -0.013672,-2.982422 0.00187,-0.05082 0.0041,-0.101559 0.00586,-0.152344 -0.014578,-0.07894 -0.029274,-0.158889 -0.037109,-0.234375 -0.00135,-0.01298 -0.00269,-0.02605 -0.00391,-0.03906 -0.026846,-0.0432 -0.051312,-0.08732 -0.060547,-0.136719 -0.013958,-0.07467 -0.02052,-0.150662 -0.023437,-0.226563 -0.058793,-0.17055 -0.083514,-0.353988 -0.1289063,-0.529297 -0.00112,0.0022 -5.79e-4,0.003 -0.00195,0.0059 -9.864e-4,-0.0083 -0.00413,-0.03349 -0.00195,-0.02539 0.00172,0.0064 0.00224,0.0131 0.00391,0.01953 0.016907,-0.03356 0.00275,-0.0073 -0.013672,-0.11914 -0.013715,-0.0934 -0.022317,-0.18886 -0.041016,-0.28125 -0.031328,-0.10944 -0.077976,-0.215238 -0.1035156,-0.326172 -0.034725,-0.15083 -0.05957,-0.303893 -0.082031,-0.457031 -0.00483,-0.0329 0,-0.06636 0,-0.09961 V 18.371094 17.357422 16.181641 H 7.796875 c 5.27e-5,-0.196614 9.56e-5,-0.393202 0,-0.589844 -1.01e-5,-0.02077 -0.00681,-0.04722 -0.013672,-0.07422 z m 25.8476563,0.02734 c -0.03495,0.01408 -0.07232,0.02541 -0.103515,0.04297 0.0013,0.0091 0.0087,0.01759 0.02344,0.02539 0.01175,-0.0071 0.02343,-0.01433 0.03516,-0.02148 0.01525,-0.01566 0.02992,-0.03149 0.04492,-0.04687 z m 4.744141,0.04687 c -0.0014,0.0027 -0.0025,0.0051 -0.0039,0.0078 0.0029,-0.0019 0.0069,-0.002 0.0098,-0.0039 -0.0021,-10e-4 -0.0038,-0.0029 -0.0059,-0.0039 z m -6.412109,0.916015 c -0.01318,0.0076 -0.01561,0.01037 -0.02344,0.01563 -0.0032,0.0021 -0.01116,0.01128 -0.0078,0.0098 0.02725,-0.02048 0.01386,-0.01201 0.03125,-0.02539 z m -0.02734,0.05859 c -0.124961,0.0048 -0.230564,0.102046 -0.427735,0.275391 0.142576,-0.09151 0.284706,-0.184616 0.427735,-0.275391 z m -3.136719,2.267578 c 0.02017,-0.0063 -0.04139,0.0049 -0.0625,0.0059 -0.01716,7.65e-4 -0.03546,0.0078 -0.05273,0.01758 0.03906,-0.0074 0.07732,-0.01163 0.115234,-0.02344 z M 8.046875,19.982422 c -0.00426,0.0147 -0.01084,0.07402 -0.015625,0.09766 -0.00414,0.118336 -0.01467,0.236583 0.027344,0.351563 -0.00341,-0.148832 0.00471,-0.299118 -0.00781,-0.447266 -6.768e-4,-0.008 -0.00248,-0.0069 -0.00391,-0.002 z m 17.136719,0.05273 c -0.02429,-0.0028 -0.03192,-7.55e-4 -0.06055,0.002 0.06025,0.0077 0.12752,0.01784 0.222656,0.0293 -0.09685,-0.01955 -0.137815,-0.02843 -0.162109,-0.03125 z m -17.0605471,0.580078 -0.041016,0.0078 c 0.020283,0.06186 0.039213,0.124129 0.060547,0.185547 -0.0053,-0.06116 -0.00956,-0.12246 -0.013672,-0.183594 -0.00171,-0.003 -0.00423,-0.0068 -0.00586,-0.0098 z m 26.8417971,0.03516 c -0.145591,0.09335 -0.288853,0.191098 -0.4375,0.279297 -0.200513,0.118974 -0.405301,0.230693 -0.611328,0.339843 -0.212688,0.112678 -0.592742,0.279017 -0.800782,0.373047 -0.09423,0.04109 -0.191643,0.07631 -0.283203,0.123047 -0.09134,0.04663 -0.178245,0.10257 -0.265625,0.15625 -0.06103,0.03749 -0.115237,0.08596 -0.179687,0.117187 -0.198605,0.09623 -0.40184,0.185371 -0.607422,0.265626 -0.949837,0.370757 0.05024,-0.07834 -0.636719,0.238281 -0.04379,0.0241 -0.09044,0.04575 -0.132812,0.07227 -0.07975,0.04989 -0.156775,0.10309 -0.234375,0.15625 -0.0613,0.04199 -0.118281,0.09011 -0.181641,0.128907 -0.529646,0.324367 -0.302251,0.170887 -0.740234,0.402343 -0.109573,0.0579 -0.215805,0.121591 -0.324219,0.181641 -0.304709,0.187817 -0.628817,0.343281 -0.935547,0.527344 -0.518846,0.311354 -0.09453,0.06939 -0.458984,0.304687 -0.171549,0.110754 -0.344714,0.217483 -0.517578,0.326172 -0.281885,0.166176 -0.558951,0.341715 -0.839844,0.509766 -0.03205,0.217693 -0.162761,0.373916 -0.308594,0.654297 -0.0041,0.008 -0.01429,0.02023 -0.02344,0.03125 0.0017,0.008 0.0041,0.01332 0.0059,0.02148 0.0015,0.111996 0.0055,0.166865 0.0059,0.222656 -0.0013,3.7e-5 -0.0019,-0.0014 -0.0039,0 -0.481784,0.346383 -0.940287,0.723558 -1.410156,1.085938 -0.06821,-0.0218 -0.139758,-0.03509 -0.205078,-0.06445 -0.330855,-0.148739 -0.668521,-0.345114 -0.998047,-0.544922 -0.01843,0.0053 -0.0363,0.01229 -0.05469,0.01758 -0.101942,0.02933 -0.147831,0.04622 -0.144531,0.04492 0.06203,-0.02388 0.125026,-0.04558 0.1875,-0.06836 -0.202315,-0.122816 -0.405119,-0.249075 -0.589844,-0.361328 -1.030629,-0.626292 -0.715123,-0.435712 -0.6875,-0.419922 l -0.599609,-0.05273 c 0.03239,-0.08417 0.06625,-0.167518 0.09766,-0.251953 -0.02953,-0.01779 -0.03976,-0.0249 -0.08594,-0.05273 -0.181425,0.07525 -0.347292,0.133102 -0.689453,0.25586 -0.231606,0.0047 -0.582105,0.215779 -0.695313,0.01367 -0.09958,-0.177782 -0.171199,-0.36771 -0.226563,-0.564453 -0.09412,-0.05185 -0.186806,-0.108112 -0.273437,-0.171875 -0.103665,-0.0763 -0.139951,-0.218063 -0.181641,-0.339844 -0.06023,-0.175921 -0.08269,-0.272474 -0.09375,-0.357422 -0.19466,-0.001 -0.389315,-0.0016 -0.583984,-0.002 -0.134234,-2e-4 -0.270762,0.01369 -0.404297,0 -0.268173,-0.0275 -0.532454,-0.0816 -0.798828,-0.123047 -0.484917,-0.141951 -0.986062,-0.230699 -1.458984,-0.412109 -0.117924,-0.04523 -0.275079,-0.126081 -0.388672,-0.181641 -0.271152,-0.131902 -0.531746,-0.30624 -0.716797,-0.548828 -0.02391,-0.03134 -0.0512,-0.06184 -0.07617,-0.09375 -0.150376,-0.03346 -0.301617,-0.06355 -0.451172,-0.09961 -0.159546,-0.04872 -0.320163,-0.09423 -0.480469,-0.140624 -0.02187,0.344871 -0.0528,0.47871 -0.226562,1.421874 -0.12517,0.679405 -0.273936,1.353975 -0.410156,2.03125 -0.183297,0.91134 -0.362067,1.822369 -0.539063,2.734376 -10e-4,0.198035 1.48e-4,0.395713 -0.002,0.59375 -0.0014,0.206367 0.0079,0.413108 -0.0039,0.61914 -0.0061,0.107028 -0.02944,0.212923 -0.04883,0.31836 -0.0031,0.01681 -0.04105,-0.189763 -0.03125,-0.06641 0.02201,0.278347 0.270001,0.622106 0.08594,0.832031 -0.201881,0.230203 -0.484749,0.356191 -0.779297,0.466797 0.02019,-0.0019 0.04029,-0.0061 0.06055,-0.0078 0.0986,-0.03924 0.196865,-0.07982 0.296875,-0.115235 0.04384,-0.01553 0.08962,-0.024 0.134766,-0.03516 0.119108,-0.02943 0.31713,-0.07947 0.435547,-0.0957 0.337437,-0.04626 0.256874,-0.05684 0.402343,-0.0332 0.264962,-0.0055 -0.07167,0.0068 0.408203,-0.04492 0.344273,-0.0371 0.685507,-0.05401 1.03125,-0.04102 0.405868,0.0026 0.81102,-0.0063 1.216797,-0.0078 0.6129,0.03593 0.116739,-1.46e-4 0.361329,0.02734 0.04288,0.0049 0.08636,0.0065 0.128906,0.01367 0.0546,0.0092 -0.137036,0.07457 -0.03125,0.05078 0.11006,-0.02475 0.214888,-0.06894 0.322265,-0.103516 0.2142,-0.03733 0.427295,-0.08269 0.642579,-0.113281 0.04802,-0.0068 0.09798,0 0.146484,0 h 0.769531 c 0.518473,0 1.036215,-2e-6 1.554688,0 0.539398,0 1.079742,2e-6 1.61914,0 0.520565,6e-6 1.041935,8.6e-5 1.5625,0 0.570639,-5.6e-5 1.1403,-1.1e-4 1.710938,0 0.723128,-5e-4 1.446802,-0.0032 2.169922,0.002 0.302567,0.0012 0.608801,0.0089 0.912109,0 0.266951,-0.0079 0.09655,-0.01568 0.431641,-0.01758 0.08005,-4e-4 0.160214,0.0037 0.240234,0.0059 0.115474,0.01367 0.232492,0.02493 0.347656,0.04102 0.02917,0.0041 0.0572,0.01303 0.08594,0.01953 -0.0081,0.005 -0.03459,0.013 -0.02539,0.01563 0.07713,0.02216 0.232754,-0.02027 0.308594,-0.0098 0.164372,-0.0046 0.293427,-0.01521 0.457031,0.0059 0.0943,0.01145 0.187732,0.02999 0.28125,0.04687 0.0085,7e-6 0.01697,3.1e-4 0.02539,0 0.123273,0.01056 0.248286,0.01621 0.371094,0.03125 0.302544,0.03704 0.453751,0.126459 0.662109,0.167969 0.06081,0.01391 0.120968,0.02642 0.181641,0.04102 0.01135,0.0027 0.04674,0.01022 0.03516,0.01172 0.0052,-1.04e-4 0.01044,-3.1e-5 0.01563,0 0.244466,0.0014 0.274299,0.01037 0.472656,0.03906 0.261606,0.0461 0.505693,0.10099 0.759766,0.18164 0.02262,0.0072 0.0456,0.01791 0.06641,0.0293 0.01174,0.0064 0.01825,0.02024 0.03125,0.02344 0.0557,0.01364 0.113132,0.01739 0.169922,0.02539 0.369232,0.05343 0.739627,0.11487 1.085937,0.259766 -0.10295,0.01054 -0.411552,0.02079 -0.308594,0.03125 0.111323,0.01131 0.222088,-0.02934 0.333985,-0.0293 0.283352,1.21e-4 0.559574,0.04824 0.833984,0.107422 -0.02423,-0.08734 -0.03129,-0.1428 -0.05664,-0.298828 -0.0099,-0.106806 -0.02415,-0.213286 -0.03125,-0.320313 -0.01277,-0.193246 0.01015,-0.388708 0,-0.582031 0.0029,-0.262735 0.02167,-0.52797 -0.01758,-0.789063 -2.41e-4,-0.101918 -0.0064,-0.202863 -0.002,-0.304687 0.01205,-0.279247 0.08616,-0.548628 0.154297,-0.818359 -0.06582,-0.1386 -0.091,-0.232721 -0.117187,-0.390625 -0.02767,-0.166862 -0.02348,-0.143576 -0.04492,-0.289063 -0.06596,-0.451094 -0.14523,-0.903003 -0.15625,-1.359375 -0.0012,-0.583382 0.0011,-1.166623 0.0039,-1.75 -9e-4,-1.028519 -0.03512,-2.057704 0,-3.085937 0.0084,-0.233661 0.01488,-0.467596 0.02539,-0.701172 0.0073,-0.162005 0.0379,-0.447531 0.0293,-0.603516 -0.0033,-0.06077 -0.01703,-0.120027 -0.0293,-0.179687 z m -8.519532,5.1875 c -0.0073,-0.03426 -0.01262,-0.06237 -0.01953,-0.09375 -0.0043,0.03918 -0.01174,0.07796 -0.01563,0.117187 -0.0018,0.01787 0.01685,-0.0014 0.03516,-0.02344 z m -0.01953,-0.09375 c 0.01541,-0.140989 0.03661,-0.281248 0.05469,-0.421875 -0.03885,0.02152 -0.07644,0.04499 -0.09375,0.05273 -0.01987,0.0089 -0.04034,0.01696 -0.06055,0.02539 0.04197,0.11909 0.0741,0.227871 0.09961,0.34375 z M 24.44922,20.966796 c 0.0052,0.0026 0.01041,0.0052 0.01563,0.0078 0.02355,-5.72e-4 0.04677,2.66e-4 0.07031,0 0.0248,-0.0077 -0.0038,-0.01053 -0.08594,-0.0078 z m -0.447266,0.712891 c 10e-4,0.004 -2.85e-4,0.0057 0.002,0.0098 0.0083,0.03144 0.02831,0.05925 0.04492,0.08789 -0.01419,-0.02972 -0.02976,-0.06246 -0.04687,-0.09766 z m -10.46875,0.984374 v 0.40625 c 0.390891,-0.0089 0.674698,-0.08527 0.501953,-0.220703 -0.1453,-0.113914 -0.319197,-0.160404 -0.501953,-0.185547 z m 12.980469,2.400391 c -0.08442,0.05268 -0.168639,0.105621 -0.251953,0.160156 0.0049,0.0109 0.0088,0.02231 0.01367,0.0332 0.01811,0.04265 0.02699,0.07697 0.04102,0.115235 7.6e-5,2.08e-4 0.0019,-2.08e-4 0.002,0 0.02367,-0.0172 0.05409,-0.04607 0.101563,-0.0957 0.02374,-0.02481 0.04677,-0.05151 0.0625,-0.08203 0.0037,-0.0071 0.01251,-0.02073 0.01758,-0.0293 0.0046,-0.03385 0.009,-0.06772 0.01367,-0.101563 z m -6.066406,0.103516 c -0.04138,0.162951 0.06329,0.153736 0.638672,0.314453 -0.208901,-0.110815 -0.428244,-0.20607 -0.638672,-0.314453 z m 1.128906,0.01367 c -0.0027,0.07254 -0.0048,0.141737 -0.0059,0.220703 -3.09e-4,0.02293 0.03957,-0.0218 0.05664,-0.03711 0.01193,-0.01069 0.03224,-0.02381 0.02734,-0.03906 -0.01229,-0.03834 -0.0217,-0.07844 -0.0332,-0.117188 -0.04713,-0.02844 0.0071,0.004 -0.04492,-0.02734 z m 4.875,0.974609 c -0.0037,0.0556 -0.0094,0.108044 -0.03711,0.208984 -0.01342,0.04892 -0.06153,0.192528 -0.05273,0.142578 0.02104,-0.1188 0.06444,-0.233613 0.08984,-0.351562 z M 37.828125,27.25 c 4.01e-4,0.01761 0.0015,0.03515 0.002,0.05273 l 0.0098,-0.002 c -0.0041,-0.01689 -0.0083,-0.03376 -0.01172,-0.05078 z m -24.751953,2.970703 c 0.0075,0.02979 0.01563,0.06024 0.02344,0.08984 0.0069,0.02617 0.03435,0.101097 0.03125,0.07422 -0.0074,-0.06383 -0.02651,-0.116731 -0.05469,-0.164063 z m 22.457031,1.742188 c -0.01438,-0.0092 -0.05271,0.102066 -0.08984,0.210937 0.02864,0.0069 0.05731,0.01243 0.08594,0.01953 -0.01688,0.03773 -0.01093,0.04956 0.0098,0.05078 0.0029,-0.07356 0.0036,-0.15653 0,-0.253907 -5.96e-4,-0.016 -0.0026,-0.02523 -0.0059,-0.02734 z m -0.183594,0.179687 c -1.53e-4,10e-4 -0.0018,0.01041 -0.002,0.01172 h 0.002 c -1.69e-4,4.4e-4 4.96e-4,-0.01501 0,-0.01172 z M 7.4433594,32.615234 c -0.00317,0.0013 -0.00658,-8.01e-4 -0.00977,0.002 -0.016767,0.0071 -0.031578,0.0092 -0.048828,0.01758 -0.023539,0.01142 -0.044038,0.02772 -0.066406,0.04102 0.00205,3.2e-4 0.0038,0.0016 0.00586,0.002 0.039977,-0.02034 0.078972,-0.04243 0.1191406,-0.0625 z m -0.1191406,0.0625 c -0.0026,0.0013 -0.00522,0.0026 -0.00781,0.0039 0.00398,10e-4 0.00774,0.0028 0.011719,0.0039 0.00417,-0.002 0.00754,-0.0058 0.011719,-0.0078 -0.00536,-8.91e-4 -0.010314,8.45e-4 -0.015625,0 z m -0.00781,0.0039 c -0.00138,-3.65e-4 -0.00253,-0.0016 -0.00391,-0.002 -0.00881,0.0053 -0.016741,0.01201 -0.025391,0.01758 0.00984,-0.0051 0.019437,-0.0106 0.029297,-0.01563 z m -0.00391,-0.002 c 0.00201,-0.0012 0.00384,-0.0027 0.00586,-0.0039 -0.01131,-0.0018 -0.022094,9.9e-4 -0.033203,-0.002 0.00902,0.0023 0.018336,0.0035 0.027344,0.0059 z m -0.011719,-0.03125 c -0.016337,0.0037 -0.04136,0.0095 -0.058594,0.01367 0.00322,7.76e-4 0.00655,0.0012 0.00977,0.002 0.016269,-0.0053 0.032552,-0.01035 0.048828,-0.01562 z m -0.082031,0.01758 c -0.095954,0.02401 -0.167292,0.04086 -0.3183594,0.07422 -0.010181,0.0079 -0.019217,0.01733 -0.029297,0.02539 0.033011,1.54e-4 0.066437,-0.0014 0.097656,0.002 0.09007,-0.03258 0.1782913,-0.06981 0.2695312,-0.09961 -0.00643,-6.89e-4 -0.013138,-0.0014 -0.019531,-0.002 z m -0.25,0.101562 c -0.051967,0.0188 -0.103105,0.03992 -0.1542969,0.06055 0.021541,0.0049 0.043032,0.0102 0.064453,0.01563 0.027223,0.0017 0.033029,0.0024 0.064453,0.0039 0.015559,0.0045 0.022324,0.0071 0.046875,0.01367 0.039896,-0.02455 0.082048,-0.04537 0.1230468,-0.06836 -0.046631,-0.0115 -0.095887,-0.0202 -0.1445309,-0.02539 z m 0.021484,0.09375 c -0.00398,0.0024 -0.00775,0.0053 -0.011719,0.0078 0.00321,8.47e-4 0.00656,0.0011 0.00977,0.002 0.00401,-0.0024 0.00769,-0.0054 0.011719,-0.0078 -0.00516,-0.0014 -0.00478,7.91e-4 -0.00977,-0.002 z m -0.011719,0.0078 c -0.033126,-0.0088 -0.06641,-0.01698 -0.099609,-0.02539 -0.028868,-0.0018 -0.043426,-0.0022 -0.068359,-0.0039 4.55e-4,0.0065 -4.772e-4,0.01303 0,0.01953 0.002,0.04268 0.00573,0.06913 0.00781,0.105469 0.0079,8.29e-4 0.015626,0.0011 0.023437,0.002 0.0197,-0.01415 0.038458,-0.02943 0.058594,-0.04297 0.00437,-0.0031 0.011688,-0.01116 0.015625,-0.01367 0.00517,-0.0033 0.010431,-0.0065 0.015625,-0.0098 0.015783,-0.01026 0.030871,-0.0213 0.046875,-0.03125 z m -0.1640625,-0.04102 c -0.00123,-2.78e-4 -0.00267,2.76e-4 -0.00391,0 v 0.002 c 0.00134,-5.43e-4 0.00256,-0.0014 0.00391,-0.002 z m -0.00391,0 c -2.652e-4,-0.0039 2.574e-4,-0.0078 0,-0.01172 -0.00359,0.003 -0.00814,0.0048 -0.011719,0.0078 0.004,8.66e-4 0.00772,0.003 0.011719,0.0039 z m 0,-0.01172 c 0.020248,-0.01687 0.039998,-0.03435 0.060547,-0.05078 -0.021135,-9.8e-5 -0.040377,-0.0033 -0.0625,-0.002 0.00101,0.01756 8.869e-4,0.03517 0.00195,0.05273 z m -0.029297,0.02344 c -0.0014,0.0012 -0.0025,0.0027 -0.00391,0.0039 0.00323,-0.0013 0.00653,-0.0026 0.00977,-0.0039 -0.00203,-1.46e-4 -0.00385,1.44e-4 -0.00586,0 z m -0.2675781,0.002 c -0.038675,0.01995 -0.066625,0.02658 -0.109375,0.05078 -0.00902,0.0051 -0.014807,0.01393 -0.023437,0.01953 0.00417,0.0022 0.0076,0.0056 0.011719,0.0078 0.038613,-0.02513 0.088319,-0.05716 0.1210938,-0.07813 z m 0.5332031,0.03711 c -0.00175,0.0015 -0.00411,0.0024 -0.00586,0.0039 0.023419,0.0059 0.046737,0.01246 0.070312,0.01758 l 0.00195,-0.002 c -0.013551,-0.0044 -0.03154,-0.01021 -0.066406,-0.01953 z m -0.828125,0.0098 c -0.025764,0.0078 -0.042458,0.0116 -0.072266,0.02148 -0.00631,0.0021 -0.011435,0.0072 -0.017578,0.0098 0.044923,9.01e-4 0.081708,0.0043 0.125,0.0059 0.015192,-0.0088 0.03139,-0.01528 0.046875,-0.02344 -0.036074,-0.0069 -0.049297,-0.0078 -0.082031,-0.01367 z m 0.082031,0.01367 c 0.00613,0.0012 0.00745,0.0027 0.013672,0.0039 0.00427,-0.0029 0.00752,-0.0069 0.011719,-0.0098 -0.00104,-9.44e-4 -0.00286,4.1e-4 -0.00391,-0.002 -0.0068,0.0034 -0.01474,0.0043 -0.021484,0.0078 z m 0.013672,0.0039 c -0.011118,0.0075 -0.021571,0.01361 -0.033203,0.02148 0.026168,10e-4 0.050618,0.0027 0.076172,0.0039 0.00149,-0.0011 0.00241,-0.0028 0.00391,-0.0039 -0.00689,-0.0062 -0.014613,-0.01139 -0.021484,-0.01758 -0.011622,-0.0023 -0.014077,-0.0017 -0.025391,-0.0039 z m 0.046875,0.02148 c 0.00137,0.0012 0.00254,0.0027 0.00391,0.0039 0.00261,1.27e-4 0.00521,-1.3e-4 0.00781,0 0.00552,-0.0036 0.012186,-0.0063 0.017578,-0.0098 -0.00751,-0.0036 -0.00876,-0.0049 -0.013672,-0.0059 H 6.375 c -0.00504,0.0034 -0.00876,0.0082 -0.013672,0.01172 z m 0.00391,0.0039 c -0.00261,-1.28e-4 -0.0052,1.25e-4 -0.00781,0 -0.025212,0.01846 -0.049837,0.03664 -0.072266,0.05859 0.031044,-0.02031 0.056258,-0.03661 0.083984,-0.05469 -0.00137,-0.0012 -0.00254,-0.0027 -0.00391,-0.0039 z m -0.083984,-0.0039 c -0.0094,-3.65e-4 -0.017861,-0.0016 -0.027344,-0.002 -0.089712,0.05181 -0.1741307,0.115465 -0.2578124,0.179688 0.1074776,-0.06598 0.2093918,-0.126448 0.2851562,-0.177735 z m 2.453125,2.248047 c -0.00738,0.0048 -0.014148,0.01071 -0.021484,0.01563 0.00662,0.0026 0.020196,0.0069 0.027344,0.0098 h 0.00195 l 0.00195,-0.002 c 0.00563,-0.006 0.00904,-0.01035 0.013672,-0.01563 -0.00761,-0.0024 -0.016106,-0.0055 -0.023437,-0.0078 z m 31.9121087,0.230469 c -0.161125,0.109728 -0.329876,0.203933 -0.513672,0.291016 -0.08588,0.04043 -0.174075,0.07535 -0.261718,0.111328 h 0.77539 z"
         />
      </clipPath>
      <clipPath
         clipPathUnits="userSpaceOnUse"
         id="clipPath6004">
         <path
            id="path6006"
            style="fill:#ff0000;fill-opacity:1;fill-rule:nonzero;stroke:none"
            d="M 0,0 V 48.388672 H 48.388672 V 0 Z m 35.482422,12.183594 h 3.125 c -8e-6,0.08757 1.5e-5,0.03954 0,0.148437 -8.2e-5,0.365613 3e-5,0.730148 0,1.095703 0.0998,0.0072 0.199259,0.03053 0.298828,0.05078 0.07712,-0.02501 0.151679,-0.03955 0.224609,-0.04297 0.03014,-0.0014 0.05843,0.0061 0.08789,0.0078 0.02236,-0.01054 0.04524,-0.02145 0.06836,-0.03125 l 0.03516,-0.24414 c -0.02794,-0.0019 -0.05568,-0.008 -0.08398,-0.01172 0.04596,-0.0046 0.09271,-0.0091 0.138672,-0.01367 0.144857,0.01557 0.436667,0.01849 0.582031,0.115234 0.04364,0.02904 0.08473,0.06204 0.125,0.0957 -0.0094,-0.0031 -0.01958,-0.0035 -0.0293,-0.0059 -0.02304,0.0066 -0.04739,0.01394 -0.07031,0.02149 0.05656,0.0128 0.114412,0.02721 0.169922,0.04492 -0.02245,-0.01991 -0.04541,-0.03936 -0.06836,-0.05859 0.0011,4.29e-4 0.0028,-5.2e-4 0.0039,0 0.04986,0.02408 0.101964,0.04273 0.144531,0.07813 0.0039,0.0032 0.01116,0.0098 0.01563,0.01367 -0.03215,-0.01193 -0.06306,-0.02279 -0.0957,-0.0332 0.09767,0.08664 0.192956,0.176289 0.302734,0.246094 0.08394,0.05338 -0.112134,-0.132667 -0.203125,-0.210937 0.127436,0.04757 0.2513,0.105705 0.367188,0.171875 0.248933,0.142136 0.352995,0.63118 0.390625,0.902344 l -0.69336,0.09961 -0.195312,0.289062 0.296875,0.002 0.654297,0.0059 c -2.22e-4,0.02471 4.13e-4,0.04952 0,0.07422 -10e-4,0.211861 0.0084,0.424882 0.002,0.636718 -0.0093,0.245964 -0.0011,0.11926 -0.01172,0.263672 -0.002,0.02764 -0.0059,0.05438 -0.0078,0.08203 -7e-4,0.01007 0.0073,0.03525 -0.002,0.03125 -0.01421,-0.0061 -0.02398,-0.05632 -0.02148,-0.04102 0.02178,0.134839 0.05313,0.268441 0.08008,0.402344 0.0044,0.174679 0.01967,0.348804 0.01367,0.523437 -0.0023,0.06739 -0.01516,0.166109 -0.03125,0.271484 0.0031,0.08007 0.0088,0.159984 0.0078,0.240235 -0.0027,0.21233 -0.01052,0.425039 -0.02734,0.636719 -0.0098,0.123547 -0.03654,0.244314 -0.05273,0.367187 -0.06053,0.459144 -0.111872,0.920197 -0.175782,1.378906 -0.03591,0.119028 -0.06716,0.239201 -0.09961,0.359375 -0.02448,0.781419 -0.01358,1.561997 -0.0039,2.34375 0.03209,1.348018 0.01492,2.696725 0.01172,4.044922 10e-4,0.82815 0.0022,1.656223 0.002,2.484375 -4.19e-4,0.540955 -8.4e-5,1.082091 0,1.623047 -1.46e-4,0.05531 1.47e-4,0.110706 0,0.166016 l -0.515624,-0.002 v 0.742187 0.820313 0.185547 0.314453 0.177734 0.0957 0.238281 0.01172 h 0.300781 c 0.0013,0.177163 0.0027,0.33625 -0.0098,0.490234 0.03387,0.01333 0.01656,0.08676 -0.02344,0.185547 -0.03625,0.202468 -0.10889,0.406702 -0.259766,0.644532 -0.08963,0.141284 -0.231375,0.236155 -0.371094,0.333984 0.109238,-0.09582 0.229915,-0.201515 0.296875,-0.257813 0.05792,-0.178468 0.249084,-0.511015 0.333985,-0.720703 0.01105,-0.06173 0.0184,-0.123179 0.02344,-0.185547 -0.01397,-0.0055 -0.03567,-0.0025 -0.06836,0.01367 -0.67699,0.334665 -0.917215,1.350397 -1.642578,1.560547 -0.444245,0.128705 -0.823057,-0.396078 -1.210938,-0.673828 l 0.146484,0.994141 c -0.579032,-0.430636 -1.259048,-0.753662 -1.742187,-1.28711 -0.04951,-0.03532 -0.09817,-0.07383 -0.146484,-0.117187 -0.166083,-0.149048 -0.265349,-0.394263 -0.361329,-0.59375 -0.102198,-0.212565 -0.06336,-0.131991 -0.201171,-0.441406 -0.03377,-0.07582 -0.07686,-0.147323 -0.101563,-0.226563 -0.06086,-0.195205 -0.109967,-0.394143 -0.154297,-0.59375 -0.01646,-0.07412 -0.04676,-0.288305 -0.07422,-0.488281 -0.032,-0.0022 -0.06418,-0.0073 -0.0957,-0.002 -0.03829,-0.0018 -0.02667,-0.01291 0.0059,-0.0293 -0.06873,0.0258 -0.138392,0.04884 -0.210938,0.05859 -0.257005,0.03455 -0.80789,-0.0568 -1.046875,-0.240235 -0.232797,-0.17868 -0.417668,-0.411467 -0.626953,-0.617187 -0.219578,-0.444819 -0.121948,-0.193304 -0.261719,-0.933594 -0.004,-0.02126 -4.35e-4,-0.0427 0.002,-0.06445 -6.14e-4,-0.01108 5.57e-4,-0.02213 0,-0.0332 -0.02171,-0.42948 -0.0042,-0.858626 0.03125,-1.28711 0.0344,-0.0086 0.05535,-4.46e-4 0.06836,0.0078 -0.0207,-0.02272 -0.06344,-0.09799 -0.119141,-0.351563 -0.03209,-0.146088 -0.07714,-0.39107 -0.105468,-0.615234 -0.108711,-0.02775 -0.218441,-0.04812 -0.328126,-0.06836 -0.03373,-0.0062 -0.06777,-0.01139 -0.101562,-0.01758 -0.159504,0.04624 -0.27795,0.08265 -0.523438,0.152343 -0.0861,0.02444 -1.612594,0.508588 -2.054687,0.472657 -0.438822,-0.03568 -0.879402,-0.106259 -1.296875,-0.246094 -0.189128,-0.06335 -0.322834,-0.234571 -0.484375,-0.351563 -0.09446,-0.1046 -0.193625,-0.204296 -0.291016,-0.30664 -0.156196,-0.0037 -0.373441,-0.01197 -0.71289,-0.0293 -0.134654,-0.0069 -0.269851,-0.01327 -0.404297,-0.02539 -0.201801,0.07409 -0.384345,0.134618 -0.728516,0.220703 -0.136714,0.03419 -0.276638,0.05533 -0.416015,0.07617 -0.713054,0.10663 -1.412274,0.15775 -2.132813,0.0625 C 22.76102,27.784988 22.378786,27.708917 22,27.623047 c -0.190952,-0.04329 -0.391436,-0.09304 -0.589844,-0.148438 -0.143859,0.183785 -0.0749,0.129931 -0.46289,0.617188 -0.176454,0.221602 -0.359169,0.436795 -0.542969,0.652344 -0.118366,0.138814 -0.254011,0.265555 -0.365235,0.410156 -0.0841,0.109341 -0.147143,0.232914 -0.220703,0.349609 -0.0365,0.06982 -0.06878,0.141475 -0.109375,0.208985 -0.158378,0.263326 -0.327029,0.522841 -0.507812,0.771484 -0.173196,0.238207 -0.206467,0.273423 -0.324219,0.421875 l 0.002,0.002 c -0.0171,0.02112 -0.06755,0.08388 -0.05078,0.0625 0.02319,-0.02956 0.03093,-0.04189 0.04883,-0.06445 l -2.642578,-1.662109 c 0.336802,-0.494758 0.741142,-0.944525 0.998047,-1.492188 0.01317,-0.01877 0.026,-0.03779 0.03906,-0.05664 -0.377184,-0.913298 -0.294264,-1.390227 0.04297,-1.74414 -0.180108,0.0869 -0.356686,0.180976 -0.535156,0.271484 -0.237894,0.150108 -0.487856,0.279547 -0.740235,0.402344 l 0.06055,0.121094 c -0.02914,0.0141 -0.05871,0.02697 -0.08789,0.04102 -0.02208,0.311789 -0.05436,0.62301 -0.05664,0.935547 -0.0022,0.301138 0.117576,1.570893 0.146484,1.789063 0.02196,0.165672 0.07828,0.326694 0.101563,0.492187 0.01481,0.105217 -0.0233,0.21875 0.01367,0.31836 0.04175,0.112504 0.142001,0.194195 0.212891,0.291015 l -1.97461,1.445313 c 0.002,0.0177 0.004,0.03062 0.0059,0.04883 1.862715,-0.337232 3.710691,-0.757625 5.552734,-1.191406 0.354171,-0.0834 0.708425,-0.162237 1.060547,-0.253907 0.420697,-0.10952 0.838933,-0.233328 1.257812,-0.349609 0.663606,-0.201121 0.696868,-0.178929 1.267578,-0.458984 0.0058,-0.0028 0.01,-0.0086 0.01563,-0.01172 -0.0099,0.0093 -0.0093,0.0094 0.06445,-0.07813 0.172287,-0.207794 0.406819,-0.350573 0.642578,-0.476563 l 1.441406,2.751953 c 0.04979,-0.04146 0.173552,-0.127827 0.24414,-0.191406 -0.101683,0.113532 -0.221991,0.245991 -0.292968,0.308594 -0.7123,0.628305 -1.660484,0.906263 -2.550782,1.167969 -0.453834,0.125308 -0.905666,0.256511 -1.361328,0.375 -0.359019,0.09336 -0.720939,0.174775 -1.082031,0.259765 -2.023377,0.476265 -4.051189,0.940007 -6.099609,1.296875 -3.181517,0.591605 -0.391742,0.06665 -2.292969,0.433594 -0.997704,0.192568 -0.724235,0.142558 -1.453125,0.267578 -0.153591,0.02635 -0.305554,0.06821 -0.460938,0.08008 -0.195562,0.01492 -0.391759,-3.75e-4 -0.5878901,0 -0.1804832,-0.066 -0.3641997,-0.119705 -0.5390625,-0.197265 -0.070064,-0.03107 -0.1484143,-0.0635 -0.1914063,-0.126953 C 8.8602026,35.36555 8.6234266,35.01322 8.4648438,34.625 c -0.025361,-0.06209 -0.027818,-0.141937 -0.021484,-0.226562 -0.00399,-0.01047 -0.00826,-0.02883 -0.011719,-0.03906 -0.020533,-0.0068 -0.042072,-0.01037 -0.0625,-0.01758 C 8.2832218,34.311478 8.2194126,34.237452 8.152344,34.175782 7.7219913,33.780075 7.4126486,33.271562 7.417969,32.654298 7.4176488,32.084973 7.440195,31.516495 7.421879,30.947267 7.417119,30.814594 7.414509,30.681438 7.408207,30.548829 7.402437,30.427351 7.389023,30.307142 7.386723,30.185548 7.375054,29.569019 7.422051,28.945726 7.589848,28.34961 7.612765,28.253 7.639294,28.158018 7.658207,28.060548 7.733898,27.670474 7.722719,27.273859 7.738285,26.878907 7.739345,26.6227 7.739815,26.362732 7.712894,26.107423 7.687757,25.869069 7.6026897,25.63663 7.5664096,25.400392 7.5376446,25.239759 7.5071796,25.078958 7.4804726,24.91797 7.4697836,24.85354 7.5011826,24.78601 7.4589886,24.72461 7.3865026,24.36203 7.2769567,24.006749 7.2109417,23.642579 7.0754434,22.982914 6.9479218,22.334542 6.886723,21.66211 6.876213,21.546554 6.883893,21.430448 6.880863,21.314454 6.876953,21.164595 6.872243,21.014982 6.865238,20.865235 6.859458,20.74172 6.849871,20.617529 6.841801,20.494142 c 7.7e-4,-0.200101 -0.00629,-0.399677 0.00195,-0.59961 0.00476,-0.115563 0.021983,-0.231035 0.037109,-0.345703 0.075545,-0.572703 0.2011571,-1.134229 0.2988281,-1.703125 l 0.8496094,0.140625 v -0.240234 -0.560547 c -0.084628,-0.229574 -0.1497493,-0.45615 -0.00781,-0.386719 0.00263,0.0013 0.0052,0.0026 0.00781,0.0039 v -0.109375 h 0.1757812 c 0.00443,-0.0081 0.00741,-0.0079 0.00977,0 h 0.4707031 c 0.013114,-0.01757 0.029424,-0.04813 0.041016,-0.05859 -0.026846,-0.04017 -0.055795,-0.07848 -0.082031,-0.119141 0.063003,0.07161 0.1096824,0.119222 0.1015626,0.103516 h 0.00195 L 8.75,16.617188 C 8.2622963,15.955326 8.3794844,16.185023 8.3066406,16.035156 c -0.018423,-0.02168 -0.032925,-0.04628 -0.050781,-0.06836 L 7.6757812,15.837891 c 0.036562,-0.146512 0.064693,-0.264173 0.095703,-0.373047 -0.032137,-0.06614 -0.061674,-0.138748 -0.082031,-0.22461 v -0.002 c -0.039443,-0.04674 -0.1162527,-0.14027 -0.1289062,-0.158203 0.016711,0.01816 0.036127,0.03193 0.058594,0.04297 0.024753,0.01216 0.031119,0.01566 0.054687,0.02734 C 7.533342,14.391332 7.763353,13.137814 8.0195311,13.234325 8.0186108,13.067132 8.0146096,12.892054 8,12.701172 c 0.1770584,-0.05779 0.3474785,-0.204118 0.53125,-0.173828 0.3091923,0.05096 0.5491554,0.08962 0.75,0.140625 -0.00212,-0.01304 -0.00366,-0.02603 -0.00586,-0.03906 -0.018951,-0.11226 -0.2223405,-0.04958 -0.3320312,-0.08008 -0.00474,-0.0013 0.00681,-0.0094 0.011719,-0.0098 0.044923,-0.0035 0.091728,-0.0046 0.1367188,-0.002 0.4329611,0.02477 0.4100923,0.02707 0.7675781,0.07813 1.2684283,0.318923 -0.084562,-0.03431 0.7792973,0.220704 0.04977,0.01468 0.124731,0.01832 0.125,0.01758 0.02222,-0.06156 -0.225898,-0.0039 0.08008,-0.03906 0.332577,-0.03602 0.664853,-0.02083 0.998047,-0.01563 0.536102,0.08973 0.44351,0.06665 0.65625,0.142578 0.007,0.0013 0.0211,0.0048 0.02734,0.0059 0.02341,0.0038 0.08889,0.03298 0.06641,0.02539 -0.06855,-0.02315 -0.05542,-0.01757 -0.09375,-0.03125 -0.188237,-0.03554 -0.630039,-0.170766 -0.496094,-0.06641 0.04178,0.03256 0.07611,0.05621 0.115235,0.08594 0.07419,0.006 0.147787,0.01134 0.21875,0.0332 0.243437,0.07497 0.461176,0.215353 0.685546,0.335937 0.0336,0.01806 0.06343,0.0422 0.0957,0.0625 0.149725,-0.02275 0.299305,-0.04053 0.421874,-0.05469 0.123194,-0.01423 0.247958,-0.01459 0.371094,-0.0293 0.14465,-0.01728 0.287685,-0.04408 0.431641,-0.06641 0.476826,-0.09583 0.962971,-0.150801 1.4375,-0.257813 0.832959,-0.187841 0.178946,-0.06206 0.806641,-0.226563 0.149391,-0.03914 0.300725,-0.06862 0.451171,-0.103515 0.09917,-0.01472 0.198569,-0.04588 0.298829,-0.04492 0.889437,0.0085 1.11791,0.162479 1.535156,1.001953 0.021,-0.06395 0.04668,-0.1271 0.06445,-0.191406 0.23597,0.28488 0.19087,0.214792 0.453125,0.794922 0.05683,0.125722 0.100083,0.259201 0.126953,0.394531 0.04897,0.246665 0.07551,0.495773 0.09961,0.746094 0.0072,0.07442 0.0072,0.149533 0.0078,0.224609 0.279206,0.04323 0.213028,0.227981 0.09375,0.841797 0.01006,0.06047 0.02096,0.120922 0.0293,0.181641 0.016,-0.02531 0.03026,-0.05119 0.04687,-0.07617 0.111966,-0.168241 0.398644,0.06651 0.595703,0.111328 0.0503,0.01144 0.09686,0.03693 0.144531,0.05664 0.08306,0.03435 0.166687,0.06728 0.248047,0.105469 0.554305,0.26017 0.45416,0.227365 0.96875,0.623047 0.369721,-0.09507 0.737606,-0.197845 1.113281,-0.265625 0.603297,-0.108847 1.211973,-0.185969 1.820313,-0.261719 0.397695,-0.04952 0.796738,-0.09943 1.197265,-0.113281 0.31313,-0.01084 0.626092,-0.0099 0.939453,-0.0059 0.313363,0.0041 0.626138,0.01062 0.939454,0.01172 1.11869,0.0615 1.438674,0.0895 2.164062,0.212891 0.361186,-0.198975 0.721702,-0.399305 1.083984,-0.595703 0.592646,-0.321279 1.240957,-0.638323 1.8125,-0.992188 0.18604,-0.115183 0.35122,-0.260405 0.53125,-0.384765 0.25794,-0.178174 0.516402,-0.353749 0.78125,-0.521485 0.09383,-0.05942 0.195179,-0.105533 0.292969,-0.158203 l 0.460938,0.855469 c 0.111177,-0.06867 0.161636,-0.106333 0.333984,-0.21289 0.101597,-0.06115 0.17236,-0.103785 0.261719,-0.158204 -3.22e-4,-0.460959 -8.32e-4,-0.921954 0,-1.382812 2.7e-5,-0.373736 -8.3e-5,-0.747358 0,-1.121094 1.5e-5,-0.108588 -8e-6,-0.05915 0,-0.146484 z m -18.677734,0.601562 c -0.121726,-0.06626 -0.478187,0.534042 -0.623047,0.775391 -0.110578,0.184239 -0.235145,0.435932 -0.140625,0.628906 0.20826,0.4252 0.351505,0.724246 0.472656,0.943359 0.147853,-0.758722 0.451366,-1.518479 0.328125,-2.27539 -0.0065,-0.03969 -0.01972,-0.0628 -0.03711,-0.07227 z m -6.8437505,0.265625 c -0.00161,2.01e-4 -0.00244,0.0032 -0.00391,0.0039 0.045082,0.05131 0.088895,0.11027 0.1328125,0.175781 -0.05068,-0.09541 -0.1008026,-0.183202 -0.1289062,-0.179688 z m 29.2324215,0.101563 c 0.01419,-3.45e-4 0.0285,0.0021 0.04297,0.0039 -0.02135,0.0022 -0.04311,0.0037 -0.06445,0.0059 0.0034,-7.62e-4 0.0042,-0.003 0.002,-0.0039 -0.0035,-0.0015 -0.0099,-8.66e-4 -0.01563,0 0.01168,-0.003 0.02311,-0.0056 0.03516,-0.0059 z M 7.3515625,14.681641 c 0.127378,0.240804 0.1479707,0.296173 0.1660156,0.333984 -0.02602,-0.04416 -0.048595,-0.0924 -0.074219,-0.134766 -0.03773,-0.06238 -0.1258905,-0.263664 -0.091797,-0.199218 z M 8.5371094,16.375 c -2.713e-4,-0.0044 0.00487,-0.0027 0.017578,0.0059 0.028348,0.04481 0.0591,0.08817 0.087891,0.132813 -0.05391,-0.06176 -0.104655,-0.125511 -0.1054687,-0.138672 z m 5.2558596,4.365234 c -0.01017,0.0219 -0.0188,0.04471 -0.0293,0.06641 -0.109355,0.225942 -0.230369,0.445376 -0.357422,0.660156 -0.0016,0.121045 -0.0022,0.242096 -0.0059,0.363281 -0.0062,0.205342 -0.02371,0.410021 -0.0332,0.615234 -0.01531,0.329497 -0.0287,0.660613 -0.04102,0.990235 -0.0025,0.06769 -0.0035,0.132341 -0.0059,0.199219 0.0136,0.04645 0.02912,0.09229 0.04297,0.138672 0.09877,-0.06644 0.201071,-0.132553 0.41211,-0.275391 0.0168,-0.01059 0.034,-0.02062 0.05078,-0.03125 0.295723,-0.674118 0.609903,-1.325057 0.855469,-1.689453 0.163744,-0.242983 0.343259,-0.474815 0.527343,-0.703125 -0.12222,-0.0262 -0.244055,-0.05505 -0.365234,-0.08594 -0.350985,-0.08069 -0.702571,-0.15675 -1.050781,-0.248047 z m 19.341797,3.216797 c -0.144943,0.06556 -0.290202,0.130107 -0.435547,0.195313 -0.124661,0.05081 -0.248193,0.102003 -0.373047,0.152344 -0.258435,0.104185 -0.557262,0.250062 -0.835938,0.298828 0.14326,0.01296 0.286791,0.02119 0.429688,0.03711 0.249865,-0.09878 0.448288,-0.220517 1.228516,-0.621094 -0.0043,-0.02089 -0.0094,-0.0416 -0.01367,-0.0625 z m -3.371094,0.208985 c -0.01182,0.02692 -0.02742,0.05231 -0.03711,0.08008 -0.02575,0.07376 -0.0397,0.151641 -0.05664,0.228515 0.284895,0.01434 0.545591,0.02536 0.925781,0.05078 0.236976,0.01831 0.473747,0.04247 0.710938,0.0625 0.07008,0.0014 0.140708,0.0042 0.207031,-0.0039 0.136479,-0.06837 0.558923,-0.180898 0.408203,-0.205078 -0.617808,-0.09912 -1.264594,0.09731 -1.876953,-0.03125 -0.105344,-0.02211 -0.205017,-0.09185 -0.28125,-0.18164 z m -11.34961,1.382812 c -0.04374,0.0041 -0.08607,0.0068 -0.128906,0.0098 -0.06106,0.0257 -0.122214,0.05118 -0.183594,0.07617 -0.02272,0.0093 -0.04549,0.01846 -0.06836,0.02734 l 0.246094,0.753907 c 0.05118,-0.06076 0.104852,-0.119459 0.154297,-0.181641 0.06175,-0.07765 0.120043,-0.157746 0.177734,-0.238281 -0.04733,-0.109068 -0.09495,-0.218239 -0.140625,-0.328125 -0.01922,-0.0396 -0.03781,-0.07942 -0.05664,-0.119141 z m 14.400391,2.453125 c 0.0018,0.003 0.0021,0.0068 0.0039,0.0098 0.02072,0.03358 0.111908,0.109758 0.08594,0.08008 -0.0278,-0.03177 -0.05983,-0.06016 -0.08984,-0.08984 z m 0.08789,0.01367 c 0.01347,0.01637 -0.0014,0.02105 0.04492,0.01563 -0.01466,-0.0061 -0.03012,-0.0099 -0.04492,-0.01563 z m 1.539062,0.923828 c -0.240506,0.02926 -0.930147,0.273946 -0.693359,0.222656 0.653329,-0.141525 0.765505,-0.198251 0.777344,-0.222656 -0.02808,-2.23e-4 -0.06329,-0.0025 -0.08398,0 z m -10.679687,0.777344 c -0.05474,0.04116 -0.09311,0.08029 -0.125,0.111328 0.03195,-0.01975 0.06515,-0.0402 0.09375,-0.06445 0.0149,-0.01264 0.04687,-0.05861 0.03125,-0.04687 z" />
      </clipPath>
   </defs>
   <sodipodi:namedview
      id="namedview10"
      pagecolor="#505050"
      bordercolor="#eeeeee"
      borderopacity="1"
      inkscape:pageshadow="0"
      inkscape:pageopacity="0"
      inkscape:pagecheckerboard="0"
      showgrid="false"
      inkscape:zoom="11.313709"
      inkscape:cx="16.528621"
      inkscape:cy="23.953242"
      inkscape:window-width="1920"
      inkscape:window-height="1007"
      inkscape:window-x="0"
      inkscape:window-y="0"
      inkscape:window-maximized="1"
      inkscape:current-layer="svg8" />
   <path
      d="M48.3896 11.0086C48.3609 9.9649 48.2801 8.92323 48.1477 7.88751C47.9668 6.98058 47.6657 6.10183 47.2525 5.27447C46.8185 4.37803 46.2379 3.56031 45.5347 2.85499C44.8238 2.15836 44.0072 1.57858 43.1152 1.13716C42.2866 0.732293 41.4079 0.439388 40.5021 0.266143C39.4766 0.11114 38.4421 0.0222426 37.4052 0H11.0086C9.9649 0.0287937 8.92323 0.109543 7.88751 0.241948C6.98058 0.422886 6.10183 0.723942 5.27447 1.13716C4.37803 1.57119 3.56031 2.15177 2.85499 2.85499C2.15836 3.56584 1.57858 4.38243 1.13716 5.27447C0.732293 6.10303 0.439388 6.98175 0.266143 7.88751C0.11114 8.91305 0.0222426 9.9475 0 10.9844V37.381C0.0287937 38.4247 0.109543 39.4664 0.241948 40.5021C0.422886 41.4091 0.723942 42.2878 1.13716 43.1152C1.57119 44.0116 2.15177 44.8293 2.85499 45.5347C3.56584 46.2313 4.38243 46.8111 5.27447 47.2525C6.10303 47.6574 6.98175 47.9503 7.88751 48.1235C8.91305 48.2785 9.9475 48.3674 10.9844 48.3896H37.381C38.4247 48.3609 39.4664 48.2801 40.5021 48.1477C41.4091 47.9668 42.2878 47.6657 43.1152 47.2525C44.0116 46.8185 44.8293 46.2379 45.5347 45.5347C46.2313 44.8238 46.8111 44.0072 47.2525 43.1152C47.6574 42.2866 47.9503 41.4079 48.1235 40.5021C48.2785 39.4766 48.3674 38.4421 48.3896 37.4052V11.0086Z"
      fill="#05FF4D"
      id="path2"
      clip-path="url(#clipPath6004)" />
   <rect
      x="5.80676"
      y="12.5815"
      width="34.8405"
      height="23.227"
      fill="#02270E"
      id="rect4"
      clip-path="url(#clipPath5776)" />
   <path
      d="M40.115 34.3569H36.1955V19.5376L24.4368 25.8887L12.6781 19.5376V34.3569H8.75855V14.0333H11.1103L24.4368 21.2312L37.7633 14.0333H40.115M40.115 10.646H8.75855C6.58319 10.646 4.83899 12.1533 4.83899 14.0333V34.3569C4.83899 35.2553 5.25194 36.1168 5.987 36.7521C6.72206 37.3873 7.71902 37.7442 8.75855 37.7442H40.115C41.1546 37.7442 42.1515 37.3873 42.8866 36.7521C43.6216 36.1168 44.0346 35.2553 44.0346 34.3569V14.0333C44.0346 13.1349 43.6216 12.2733 42.8866 11.6381C42.1515 11.0029 41.1546 10.646 40.115 10.646Z"
      fill="#05FF4D"
      id="path6" />
   <rect
      style="opacity:0;fill:#ff0000"
      id="rect3422"
      width="28.428492"
      height="17.518312"
      x="8.7585497"
      y="14.0333" />
</svg>