<svg width="49" height="49" viewBox="0 0 49 49" fill="none" xmlns="http://www.w3.org/2000/svg">
    <path
        d="M48.3896 11.0086C48.3609 9.9649 48.2801 8.92323 48.1477 7.88751C47.9668 6.98058 47.6657 6.10183 47.2525 5.27447C46.8185 4.37803 46.2379 3.56031 45.5347 2.85499C44.8238 2.15836 44.0072 1.57858 43.1152 1.13716C42.2866 0.732293 41.4079 0.439388 40.5021 0.266143C39.4766 0.11114 38.4421 0.0222426 37.4052 0H11.0086C9.9649 0.0287937 8.92323 0.109543 7.88751 0.241948C6.98058 0.422886 6.10183 0.723942 5.27447 1.13716C4.37803 1.57119 3.56031 2.15177 2.85499 2.85499C2.15836 3.56584 1.57858 4.38243 1.13716 5.27447C0.732293 6.10303 0.439388 6.98175 0.266143 7.88751C0.11114 8.91305 0.0222426 9.9475 0 10.9844V37.381C0.0287937 38.4247 0.109543 39.4664 0.241948 40.5021C0.422886 41.4091 0.723942 42.2878 1.13716 43.1152C1.57119 44.0116 2.15177 44.8293 2.85499 45.5347C3.56584 46.2313 4.38243 46.8111 5.27447 47.2525C6.10303 47.6574 6.98175 47.9503 7.88751 48.1235C8.91305 48.2785 9.9475 48.3674 10.9844 48.3896H37.381C38.4247 48.3609 39.4664 48.2801 40.5021 48.1477C41.4091 47.9668 42.2878 47.6657 43.1152 47.2525C44.0116 46.8185 44.8293 46.2379 45.5347 45.5347C46.2313 44.8238 46.8111 44.0072 47.2525 43.1152C47.6574 42.2866 47.9503 41.4079 48.1235 40.5021C48.2785 39.4766 48.3674 38.4421 48.3896 37.4052V11.0086Z"
        fill="#05FF4D" />
    <rect x="5.80676" y="12.5815" width="34.8405" height="23.227" fill="#02270E" />
    <path
        d="M40.115 34.3569H36.1955V19.5376L24.4368 25.8887L12.6781 19.5376V34.3569H8.75855V14.0333H11.1103L24.4368 21.2312L37.7633 14.0333H40.115M40.115 10.646H8.75855C6.58319 10.646 4.83899 12.1533 4.83899 14.0333V34.3569C4.83899 35.2553 5.25194 36.1168 5.987 36.7521C6.72206 37.3873 7.71902 37.7442 8.75855 37.7442H40.115C41.1546 37.7442 42.1515 37.3873 42.8866 36.7521C43.6216 36.1168 44.0346 35.2553 44.0346 34.3569V14.0333C44.0346 13.1349 43.6216 12.2733 42.8866 11.6381C42.1515 11.0029 41.1546 10.646 40.115 10.646Z"
        fill="#05FF4D"
    />
</svg>
    