<svg width="56" height="56" viewBox="0 0 56 56" fill="none" xmlns="http://www.w3.org/2000/svg">
    <path fill-rule="evenodd" clip-rule="evenodd"
        d="M10.5796 4.19971C8.7508 4.19971 6.9969 4.9262 5.70373 6.21936C4.41057 7.51252 3.68408 9.26643 3.68408 11.0952V45.5729C3.68408 47.4017 4.41057 49.1556 5.70373 50.4487C6.9969 51.7419 8.7508 52.4684 10.5796 52.4684H45.0572C46.886 52.4684 48.6399 51.7419 49.9331 50.4487C51.2263 49.1556 51.9528 47.4017 51.9528 45.5729V11.0952C51.9528 9.26643 51.2263 7.51252 49.9331 6.21936C48.6399 4.9262 46.886 4.19971 45.0572 4.19971H10.5796ZM14.379 19.0147C15.4718 19.0147 16.5197 18.5807 17.2924 17.808C18.065 17.0353 18.4991 15.9874 18.4991 14.8947C18.4991 13.802 18.065 12.754 17.2924 11.9813C16.5197 11.2087 15.4718 10.7746 14.379 10.7746C13.2863 10.7746 12.2384 11.2087 11.4657 11.9813C10.693 12.754 10.259 13.802 10.259 14.8947C10.259 15.9874 10.693 17.0353 11.4657 17.808C12.2384 18.5807 13.2863 19.0147 14.379 19.0147ZM17.8268 44.9281V22.2453H10.9313V44.9281H17.8268ZM22.4054 22.2453H29.301V25.2828C30.318 23.6899 32.5522 21.5454 36.7067 21.5454C41.6646 21.5454 44.3573 24.8311 44.3573 31.0819C44.3573 31.3819 44.3849 32.7506 44.3849 32.7506V44.9247H37.4894V32.7541C37.4894 31.0819 37.1377 27.7962 33.421 27.7962C29.7009 27.7962 29.3871 31.9266 29.301 34.6297V44.9247H22.4054V22.2453Z"
        fill="#05FF4D"
    />
</svg>
    